<svg width="2737" height="1852" viewBox="0 0 2737 1852" fill="none" xmlns="http://www.w3.org/2000/svg">
<g filter="url(#filter0_f_447_498)">
<path fill-rule="evenodd" clip-rule="evenodd" d="M1885.39 1573C2189.33 1573 2435.72 1683.47 2435.72 1338.66C2562.73 933.98 2545.79 196.118 1855.9 378.054C1144.37 7.42853 454.593 440.785 411.166 994.75C375.181 1031.04 343.832 1072.09 318.101 1117.01C253.407 1229.96 227.845 971.116 245.389 1100.09C262.933 1229.07 322.6 1348.63 415.113 1440.19C507.625 1531.76 627.799 1590.19 756.948 1606.4C886.098 1622.62 1016.99 1595.7 1129.26 1529.85L1106.44 1490.94C1407.11 1552.06 1742.89 1573 1885.39 1573Z" fill="url(#paint0_radial_447_498)"/>
</g>
<defs>
<filter id="filter0_f_447_498" x="0" y="0.000854492" width="2737" height="1851" filterUnits="userSpaceOnUse" color-interpolation-filters="sRGB">
<feFlood flood-opacity="0" result="BackgroundImageFix"/>
<feBlend mode="normal" in="SourceGraphic" in2="BackgroundImageFix" result="shape"/>
<feGaussianBlur stdDeviation="120" result="effect1_foregroundBlur_447_498"/>
</filter>
<radialGradient id="paint0_radial_447_498" cx="0" cy="0" r="1" gradientUnits="userSpaceOnUse" gradientTransform="translate(1453.52 389.054) rotate(103.206) scale(1118.48 1291.62)">
<stop stop-color="#00C2FF"/>
<stop offset="0.560179" stop-color="#817EFF"/>
<stop offset="1" stop-color="#D67EFF" stop-opacity="0"/>
</radialGradient>
</defs>
</svg>
