<svg width="90" height="91" viewBox="0 0 90 91" fill="none" xmlns="http://www.w3.org/2000/svg">
<path d="M0.968268 76.1987C0.304247 77.0814 0.481517 78.3352 1.36421 78.9993L15.7486 89.8201C16.6312 90.4841 17.8851 90.3069 18.5491 89.4242C19.2131 88.5415 19.0359 87.2876 18.1532 86.6236L5.3671 77.0051L14.9856 64.219C15.6497 63.3363 15.4724 62.0824 14.5897 61.4184C13.707 60.7544 12.4531 60.9317 11.7891 61.8144L0.968268 76.1987ZM89.4102 3.96741C89.4102 2.86284 88.5147 1.96741 87.4102 1.96741C86.3056 1.96741 85.4102 2.86284 85.4102 3.96741H89.4102ZM2.8465 79.3813C17.2023 77.3517 38.7154 71.202 56.6987 59.2835C74.712 47.345 89.4102 29.4415 89.4102 3.96741H85.4102C85.4102 27.6441 71.8271 44.4582 54.4889 55.9493C37.1207 67.4602 16.212 73.4519 2.28655 75.4207L2.8465 79.3813Z" fill="white" fill-opacity="0.5"/>
<path d="M30.4687 9.12408C30.4687 9.36941 30.4473 9.58274 30.4047 9.76408C30.4473 9.93474 30.4687 10.1481 30.4687 10.4041C30.4687 10.6494 30.4473 10.8627 30.4047 11.0441H29.7647C29.8073 11.2147 29.8287 11.4281 29.8287 11.6841C29.8287 11.9294 29.8073 12.1427 29.7647 12.3241H26.5647C26.6073 12.4947 26.6287 12.7081 26.6287 12.9641C26.6287 13.2094 26.6073 13.4227 26.5647 13.6041C26.6073 13.7747 26.6287 13.9881 26.6287 14.2441C26.6287 14.4894 26.6073 14.7027 26.5647 14.8841C26.6073 15.0547 26.6287 15.2681 26.6287 15.5241C26.6287 15.7694 26.6073 15.9827 26.5647 16.1641H25.2847C25.242 15.9827 25.2207 15.7694 25.2207 15.5241C25.2207 15.2681 25.242 15.0547 25.2847 14.8841C25.242 14.7027 25.2207 14.4894 25.2207 14.2441C25.2207 13.9881 25.242 13.7747 25.2847 13.6041C25.242 13.4227 25.2207 13.2094 25.2207 12.9641C25.2207 12.7081 25.242 12.4947 25.2847 12.3241C25.242 12.1427 25.2207 11.9294 25.2207 11.6841C25.2207 11.4281 25.242 11.2147 25.2847 11.0441C25.242 10.8627 25.2207 10.6494 25.2207 10.4041C25.2207 10.1481 25.242 9.93474 25.2847 9.76408C25.242 9.58274 25.2207 9.36941 25.2207 9.12408C25.2207 8.86808 25.242 8.65474 25.2847 8.48408C25.242 8.30274 25.2207 8.08941 25.2207 7.84408C25.2207 7.58808 25.242 7.37474 25.2847 7.20408H29.7647C29.8073 7.37474 29.8287 7.58808 29.8287 7.84408C29.8287 8.08941 29.8073 8.30274 29.7647 8.48408H30.4047C30.4473 8.65474 30.4687 8.86808 30.4687 9.12408ZM29.1247 11.0441C29.082 10.8627 29.0607 10.6494 29.0607 10.4041C29.0607 10.1481 29.082 9.93474 29.1247 9.76408C29.082 9.58274 29.0607 9.36941 29.0607 9.12408C29.0607 8.86808 29.082 8.65474 29.1247 8.48408H26.5647C26.6073 8.65474 26.6287 8.86808 26.6287 9.12408C26.6287 9.36941 26.6073 9.58274 26.5647 9.76408C26.6073 9.93474 26.6287 10.1481 26.6287 10.4041C26.6287 10.6494 26.6073 10.8627 26.5647 11.0441H29.1247ZM36.8109 11.0441C36.8536 11.2147 36.8749 11.4281 36.8749 11.6841C36.8749 11.9294 36.8536 12.1427 36.8109 12.3241H35.5309C35.4882 12.1427 35.4669 11.9294 35.4669 11.6841C35.4669 11.4281 35.4882 11.2147 35.5309 11.0441H34.4109C34.4536 11.2147 34.4749 11.4281 34.4749 11.6841C34.4749 11.9294 34.4536 12.1427 34.4109 12.3241H33.9309C33.9736 12.4947 33.9949 12.7081 33.9949 12.9641C33.9949 13.2094 33.9736 13.4227 33.9309 13.6041C33.9736 13.7747 33.9949 13.9881 33.9949 14.2441C33.9949 14.4894 33.9736 14.7027 33.9309 14.8841H34.8909C34.9336 15.0547 34.9549 15.2681 34.9549 15.5241C34.9549 15.7694 34.9336 15.9827 34.8909 16.1641H31.6909C31.6482 15.9827 31.6269 15.7694 31.6269 15.5241C31.6269 15.2681 31.6482 15.0547 31.6909 14.8841H32.6509C32.6082 14.7027 32.5869 14.4894 32.5869 14.2441C32.5869 13.9881 32.6082 13.7747 32.6509 13.6041C32.6082 13.4227 32.5869 13.2094 32.5869 12.9641C32.5869 12.7081 32.6082 12.4947 32.6509 12.3241C32.6082 12.1427 32.5869 11.9294 32.5869 11.6841C32.5869 11.4281 32.6082 11.2147 32.6509 11.0441H31.6909C31.6482 10.8627 31.6269 10.6494 31.6269 10.4041C31.6269 10.1481 31.6482 9.93474 31.6909 9.76408H33.2909C33.3336 9.93474 33.3549 10.1481 33.3549 10.4041C33.3549 10.6494 33.3336 10.8627 33.2909 11.0441H33.9309C33.8882 10.8627 33.8669 10.6494 33.8669 10.4041C33.8669 10.1481 33.8882 9.93474 33.9309 9.76408H36.3309C36.3736 9.93474 36.3949 10.1481 36.3949 10.4041C36.3949 10.6494 36.3736 10.8627 36.3309 11.0441H36.8109ZM43.2812 12.9641C43.2812 13.2094 43.2598 13.4227 43.2172 13.6041H42.7372C42.7798 13.7747 42.8012 13.9881 42.8012 14.2441C42.8012 14.4894 42.7798 14.7027 42.7372 14.8841H41.9372C41.9798 15.0547 42.0012 15.2681 42.0012 15.5241C42.0012 15.7694 41.9798 15.9827 41.9372 16.1641H39.3772C39.3345 15.9827 39.3132 15.7694 39.3132 15.5241C39.3132 15.2681 39.3345 15.0547 39.3772 14.8841H38.5772C38.5345 14.7027 38.5132 14.4894 38.5132 14.2441C38.5132 13.9881 38.5345 13.7747 38.5772 13.6041H38.0972C38.0545 13.4227 38.0332 13.2094 38.0332 12.9641C38.0332 12.7081 38.0545 12.4947 38.0972 12.3241H38.5772C38.5345 12.1427 38.5132 11.9294 38.5132 11.6841C38.5132 11.4281 38.5345 11.2147 38.5772 11.0441H39.3772C39.3345 10.8627 39.3132 10.6494 39.3132 10.4041C39.3132 10.1481 39.3345 9.93474 39.3772 9.76408H41.9372C41.9798 9.93474 42.0012 10.1481 42.0012 10.4041C42.0012 10.6494 41.9798 10.8627 41.9372 11.0441H42.7372C42.7798 11.2147 42.8012 11.4281 42.8012 11.6841C42.8012 11.9294 42.7798 12.1427 42.7372 12.3241H43.2172C43.2598 12.4947 43.2812 12.7081 43.2812 12.9641ZM41.9372 13.6041C41.8945 13.4227 41.8732 13.2094 41.8732 12.9641C41.8732 12.7081 41.8945 12.4947 41.9372 12.3241H41.4572C41.4145 12.1427 41.3932 11.9294 41.3932 11.6841C41.3932 11.4281 41.4145 11.2147 41.4572 11.0441H39.8572C39.8998 11.2147 39.9212 11.4281 39.9212 11.6841C39.9212 11.9294 39.8998 12.1427 39.8572 12.3241H39.3772C39.4198 12.4947 39.4412 12.7081 39.4412 12.9641C39.4412 13.2094 39.4198 13.4227 39.3772 13.6041H39.8572C39.8998 13.7747 39.9212 13.9881 39.9212 14.2441C39.9212 14.4894 39.8998 14.7027 39.8572 14.8841H41.4572C41.4145 14.7027 41.3932 14.4894 41.3932 14.2441C41.3932 13.9881 41.4145 13.7747 41.4572 13.6041H41.9372ZM48.9834 14.8841C49.0261 15.0547 49.0474 15.2681 49.0474 15.5241C49.0474 15.7694 49.0261 15.9827 48.9834 16.1641H46.4234C46.3807 15.9827 46.3594 15.7694 46.3594 15.5241C46.3594 15.2681 46.3807 15.0547 46.4234 14.8841H45.7834C45.7407 14.7027 45.7194 14.4894 45.7194 14.2441C45.7194 13.9881 45.7407 13.7747 45.7834 13.6041C45.7407 13.4227 45.7194 13.2094 45.7194 12.9641C45.7194 12.7081 45.7407 12.4947 45.7834 12.3241C45.7407 12.1427 45.7194 11.9294 45.7194 11.6841C45.7194 11.4281 45.7407 11.2147 45.7834 11.0441H44.5034C44.4607 10.8627 44.4394 10.6494 44.4394 10.4041C44.4394 10.1481 44.4607 9.93474 44.5034 9.76408H45.7834C45.7407 9.58274 45.7194 9.36941 45.7194 9.12408C45.7194 8.86808 45.7407 8.65474 45.7834 8.48408C45.7407 8.30274 45.7194 8.08941 45.7194 7.84408C45.7194 7.58808 45.7407 7.37474 45.7834 7.20408H47.0634C47.1061 7.37474 47.1274 7.58808 47.1274 7.84408C47.1274 8.08941 47.1061 8.30274 47.0634 8.48408C47.1061 8.65474 47.1274 8.86808 47.1274 9.12408C47.1274 9.36941 47.1061 9.58274 47.0634 9.76408H48.9834C49.0261 9.93474 49.0474 10.1481 49.0474 10.4041C49.0474 10.6494 49.0261 10.8627 48.9834 11.0441H47.0634C47.1061 11.2147 47.1274 11.4281 47.1274 11.6841C47.1274 11.9294 47.1061 12.1427 47.0634 12.3241C47.1061 12.4947 47.1274 12.7081 47.1274 12.9641C47.1274 13.2094 47.1061 13.4227 47.0634 13.6041C47.1061 13.7747 47.1274 13.9881 47.1274 14.2441C47.1274 14.4894 47.1061 14.7027 47.0634 14.8841H48.9834ZM56.0937 12.9641C56.0937 13.2094 56.0723 13.4227 56.0297 13.6041H55.5497C55.5923 13.7747 55.6137 13.9881 55.6137 14.2441C55.6137 14.4894 55.5923 14.7027 55.5497 14.8841H54.7497C54.7923 15.0547 54.8137 15.2681 54.8137 15.5241C54.8137 15.7694 54.7923 15.9827 54.7497 16.1641H52.1897C52.147 15.9827 52.1257 15.7694 52.1257 15.5241C52.1257 15.2681 52.147 15.0547 52.1897 14.8841H51.3897C51.347 14.7027 51.3257 14.4894 51.3257 14.2441C51.3257 13.9881 51.347 13.7747 51.3897 13.6041H50.9097C50.867 13.4227 50.8457 13.2094 50.8457 12.9641C50.8457 12.7081 50.867 12.4947 50.9097 12.3241H51.3897C51.347 12.1427 51.3257 11.9294 51.3257 11.6841C51.3257 11.4281 51.347 11.2147 51.3897 11.0441H52.1897C52.147 10.8627 52.1257 10.6494 52.1257 10.4041C52.1257 10.1481 52.147 9.93474 52.1897 9.76408H54.7497C54.7923 9.93474 54.8137 10.1481 54.8137 10.4041C54.8137 10.6494 54.7923 10.8627 54.7497 11.0441H55.5497C55.5923 11.2147 55.6137 11.4281 55.6137 11.6841C55.6137 11.9294 55.5923 12.1427 55.5497 12.3241H56.0297C56.0723 12.4947 56.0937 12.7081 56.0937 12.9641ZM54.7497 13.6041C54.707 13.4227 54.6857 13.2094 54.6857 12.9641C54.6857 12.7081 54.707 12.4947 54.7497 12.3241H54.2697C54.227 12.1427 54.2057 11.9294 54.2057 11.6841C54.2057 11.4281 54.227 11.2147 54.2697 11.0441H52.6697C52.7123 11.2147 52.7337 11.4281 52.7337 11.6841C52.7337 11.9294 52.7123 12.1427 52.6697 12.3241H52.1897C52.2323 12.4947 52.2537 12.7081 52.2537 12.9641C52.2537 13.2094 52.2323 13.4227 52.1897 13.6041H52.6697C52.7123 13.7747 52.7337 13.9881 52.7337 14.2441C52.7337 14.4894 52.7123 14.7027 52.6697 14.8841H54.2697C54.227 14.7027 54.2057 14.4894 54.2057 14.2441C54.2057 13.9881 54.227 13.7747 54.2697 13.6041H54.7497ZM61.7959 14.8841C61.8386 15.0547 61.8599 15.2681 61.8599 15.5241C61.8599 15.7694 61.8386 15.9827 61.7959 16.1641H59.2359C59.1932 15.9827 59.1719 15.7694 59.1719 15.5241C59.1719 15.2681 59.1932 15.0547 59.2359 14.8841H58.5959C58.5532 14.7027 58.5319 14.4894 58.5319 14.2441C58.5319 13.9881 58.5532 13.7747 58.5959 13.6041C58.5532 13.4227 58.5319 13.2094 58.5319 12.9641C58.5319 12.7081 58.5532 12.4947 58.5959 12.3241C58.5532 12.1427 58.5319 11.9294 58.5319 11.6841C58.5319 11.4281 58.5532 11.2147 58.5959 11.0441H57.3159C57.2732 10.8627 57.2519 10.6494 57.2519 10.4041C57.2519 10.1481 57.2732 9.93474 57.3159 9.76408H58.5959C58.5532 9.58274 58.5319 9.36941 58.5319 9.12408C58.5319 8.86808 58.5532 8.65474 58.5959 8.48408C58.5532 8.30274 58.5319 8.08941 58.5319 7.84408C58.5319 7.58808 58.5532 7.37474 58.5959 7.20408H59.8759C59.9186 7.37474 59.9399 7.58808 59.9399 7.84408C59.9399 8.08941 59.9186 8.30274 59.8759 8.48408C59.9186 8.65474 59.9399 8.86808 59.9399 9.12408C59.9399 9.36941 59.9186 9.58274 59.8759 9.76408H61.7959C61.8386 9.93474 61.8599 10.1481 61.8599 10.4041C61.8599 10.6494 61.8386 10.8627 61.7959 11.0441H59.8759C59.9186 11.2147 59.9399 11.4281 59.9399 11.6841C59.9399 11.9294 59.9186 12.1427 59.8759 12.3241C59.9186 12.4947 59.9399 12.7081 59.9399 12.9641C59.9399 13.2094 59.9186 13.4227 59.8759 13.6041C59.9186 13.7747 59.9399 13.9881 59.9399 14.2441C59.9399 14.4894 59.9186 14.7027 59.8759 14.8841H61.7959ZM68.9062 10.4041C68.9062 10.6494 68.8848 10.8627 68.8422 11.0441H68.3622C68.4048 11.2147 68.4262 11.4281 68.4262 11.6841C68.4262 11.9294 68.4048 12.1427 68.3622 12.3241H67.8822C67.9248 12.4947 67.9462 12.7081 67.9462 12.9641C67.9462 13.2094 67.9248 13.4227 67.8822 13.6041H67.5622C67.6048 13.7747 67.6262 13.9881 67.6262 14.2441C67.6262 14.4894 67.6048 14.7027 67.5622 14.8841H67.0822C67.1248 15.0547 67.1462 15.2681 67.1462 15.5241C67.1462 15.7694 67.1248 15.9827 67.0822 16.1641H66.7622C66.8048 16.3347 66.8262 16.5481 66.8262 16.8041C66.8262 17.0494 66.8048 17.2627 66.7622 17.4441H66.1222C66.1648 17.6147 66.1862 17.8281 66.1862 18.0841C66.1862 18.3294 66.1648 18.5427 66.1222 18.7241H64.2022C64.1595 18.5427 64.1382 18.3294 64.1382 18.0841C64.1382 17.8281 64.1595 17.6147 64.2022 17.4441H65.4822C65.4395 17.2627 65.4182 17.0494 65.4182 16.8041C65.4182 16.5481 65.4395 16.3347 65.4822 16.1641C65.4395 15.9827 65.4182 15.7694 65.4182 15.5241C65.4182 15.2681 65.4395 15.0547 65.4822 14.8841H64.8422C64.7995 14.7027 64.7782 14.4894 64.7782 14.2441C64.7782 13.9881 64.7995 13.7747 64.8422 13.6041H64.5222C64.4795 13.4227 64.4582 13.2094 64.4582 12.9641C64.4582 12.7081 64.4795 12.4947 64.5222 12.3241H64.0422C63.9995 12.1427 63.9782 11.9294 63.9782 11.6841C63.9782 11.4281 63.9995 11.2147 64.0422 11.0441H63.5622C63.5195 10.8627 63.4982 10.6494 63.4982 10.4041C63.4982 10.1481 63.5195 9.93474 63.5622 9.76408H64.8422C64.8848 9.93474 64.9062 10.1481 64.9062 10.4041C64.9062 10.6494 64.8848 10.8627 64.8422 11.0441H65.3222C65.3648 11.2147 65.3862 11.4281 65.3862 11.6841C65.3862 11.9294 65.3648 12.1427 65.3222 12.3241H65.8022C65.8448 12.4947 65.8662 12.7081 65.8662 12.9641C65.8662 13.2094 65.8448 13.4227 65.8022 13.6041C65.8448 13.7747 65.8662 13.9881 65.8662 14.2441C65.8662 14.4894 65.8448 14.7027 65.8022 14.8841H66.2822C66.2395 14.7027 66.2182 14.4894 66.2182 14.2441C66.2182 13.9881 66.2395 13.7747 66.2822 13.6041H66.6022C66.5595 13.4227 66.5382 13.2094 66.5382 12.9641C66.5382 12.7081 66.5595 12.4947 66.6022 12.3241H67.0822C67.0395 12.1427 67.0182 11.9294 67.0182 11.6841C67.0182 11.4281 67.0395 11.2147 67.0822 11.0441H67.5622C67.5195 10.8627 67.4982 10.6494 67.4982 10.4041C67.4982 10.1481 67.5195 9.93474 67.5622 9.76408H68.8422C68.8848 9.93474 68.9062 10.1481 68.9062 10.4041ZM75.3124 12.9641C75.3124 13.2094 75.2911 13.4227 75.2484 13.6041H74.6084C74.6511 13.7747 74.6724 13.9881 74.6724 14.2441C74.6724 14.4894 74.6511 14.7027 74.6084 14.8841H73.9684C74.0111 15.0547 74.0324 15.2681 74.0324 15.5241C74.0324 15.7694 74.0111 15.9827 73.9684 16.1641H71.4084C71.4511 16.3347 71.4724 16.5481 71.4724 16.8041C71.4724 17.0494 71.4511 17.2627 71.4084 17.4441C71.4511 17.6147 71.4724 17.8281 71.4724 18.0841C71.4724 18.3294 71.4511 18.5427 71.4084 18.7241H70.1284C70.0857 18.5427 70.0644 18.3294 70.0644 18.0841C70.0644 17.8281 70.0857 17.6147 70.1284 17.4441C70.0857 17.2627 70.0644 17.0494 70.0644 16.8041C70.0644 16.5481 70.0857 16.3347 70.1284 16.1641C70.0857 15.9827 70.0644 15.7694 70.0644 15.5241C70.0644 15.2681 70.0857 15.0547 70.1284 14.8841C70.0857 14.7027 70.0644 14.4894 70.0644 14.2441C70.0644 13.9881 70.0857 13.7747 70.1284 13.6041C70.0857 13.4227 70.0644 13.2094 70.0644 12.9641C70.0644 12.7081 70.0857 12.4947 70.1284 12.3241C70.0857 12.1427 70.0644 11.9294 70.0644 11.6841C70.0644 11.4281 70.0857 11.2147 70.1284 11.0441C70.0857 10.8627 70.0644 10.6494 70.0644 10.4041C70.0644 10.1481 70.0857 9.93474 70.1284 9.76408H71.4084C71.4511 9.93474 71.4724 10.1481 71.4724 10.4041C71.4724 10.6494 71.4511 10.8627 71.4084 11.0441H72.0484C72.0911 11.2147 72.1124 11.4281 72.1124 11.6841C72.1124 11.9294 72.0911 12.1427 72.0484 12.3241H71.4084C71.4511 12.4947 71.4724 12.7081 71.4724 12.9641C71.4724 13.2094 71.4511 13.4227 71.4084 13.6041C71.4511 13.7747 71.4724 13.9881 71.4724 14.2441C71.4724 14.4894 71.4511 14.7027 71.4084 14.8841H73.3284C73.2857 14.7027 73.2644 14.4894 73.2644 14.2441C73.2644 13.9881 73.2857 13.7747 73.3284 13.6041H73.9684C73.9257 13.4227 73.9044 13.2094 73.9044 12.9641C73.9044 12.7081 73.9257 12.4947 73.9684 12.3241H73.3284C73.2857 12.1427 73.2644 11.9294 73.2644 11.6841C73.2644 11.4281 73.2857 11.2147 73.3284 11.0441H72.0484C72.0057 10.8627 71.9844 10.6494 71.9844 10.4041C71.9844 10.1481 72.0057 9.93474 72.0484 9.76408H73.9684C74.0111 9.93474 74.0324 10.1481 74.0324 10.4041C74.0324 10.6494 74.0111 10.8627 73.9684 11.0441H74.6084C74.6511 11.2147 74.6724 11.4281 74.6724 11.6841C74.6724 11.9294 74.6511 12.1427 74.6084 12.3241H75.2484C75.2911 12.4947 75.3124 12.7081 75.3124 12.9641ZM81.7187 11.6841C81.7187 11.9294 81.6973 12.1427 81.6547 12.3241C81.6973 12.4947 81.7187 12.7081 81.7187 12.9641C81.7187 13.2094 81.6973 13.4227 81.6547 13.6041H78.2947C78.3373 13.7747 78.3587 13.9881 78.3587 14.2441C78.3587 14.4894 78.3373 14.7027 78.2947 14.8841H81.0147C81.0573 15.0547 81.0787 15.2681 81.0787 15.5241C81.0787 15.7694 81.0573 15.9827 81.0147 16.1641H77.8147C77.772 15.9827 77.7507 15.7694 77.7507 15.5241C77.7507 15.2681 77.772 15.0547 77.8147 14.8841H77.0147C76.972 14.7027 76.9507 14.4894 76.9507 14.2441C76.9507 13.9881 76.972 13.7747 77.0147 13.6041H76.5347C76.492 13.4227 76.4707 13.2094 76.4707 12.9641C76.4707 12.7081 76.492 12.4947 76.5347 12.3241H77.0147C76.972 12.1427 76.9507 11.9294 76.9507 11.6841C76.9507 11.4281 76.972 11.2147 77.0147 11.0441H77.8147C77.772 10.8627 77.7507 10.6494 77.7507 10.4041C77.7507 10.1481 77.772 9.93474 77.8147 9.76408H81.0147C81.0573 9.93474 81.0787 10.1481 81.0787 10.4041C81.0787 10.6494 81.0573 10.8627 81.0147 11.0441H81.6547C81.6973 11.2147 81.7187 11.4281 81.7187 11.6841ZM80.3747 12.3241C80.332 12.1427 80.3107 11.9294 80.3107 11.6841C80.3107 11.4281 80.332 11.2147 80.3747 11.0441H78.2947C78.3373 11.2147 78.3587 11.4281 78.3587 11.6841C78.3587 11.9294 78.3373 12.1427 78.2947 12.3241H80.3747Z" fill="white"/>
</svg>
