<svg width="25" height="24" viewBox="0 0 25 24" fill="none" xmlns="http://www.w3.org/2000/svg">
<path d="M21.5 11.5C21.5034 12.8199 21.1951 14.1219 20.6 15.3C19.8944 16.7117 18.8098 17.8992 17.4674 18.7293C16.1251 19.5594 14.5782 19.9994 13 20C11.6801 20.0034 10.3781 19.6951 9.2 19.1L3.5 21L5.4 15.3C4.80493 14.1219 4.49656 12.8199 4.5 11.5C4.50061 9.92176 4.94061 8.37485 5.77072 7.03255C6.60083 5.69025 7.78825 4.60557 9.2 3.9C10.3781 3.30493 11.6801 2.99656 13 3H13.5C15.5843 3.11499 17.553 3.99476 19.0291 5.47086C20.5052 6.94695 21.385 8.91565 21.5 11V11.5Z" stroke="white" stroke-opacity="0.5" stroke-width="2" stroke-linecap="round" stroke-linejoin="round"/>
</svg>
