<svg width="25" height="22" viewBox="0 0 25 22" fill="none" xmlns="http://www.w3.org/2000/svg">
<g clip-path="url(#clip0_620_1230)">
<path d="M4.72471 13.2375L7.13883 7.80575C7.61903 7.80575 8.07956 7.99651 8.41912 8.33606C8.75867 8.67561 8.94943 9.13614 8.94943 9.61634V12.0305H12.3654C12.5404 12.0285 12.7137 12.0646 12.8733 12.1362C13.033 12.2079 13.1751 12.3134 13.2899 12.4454C13.4047 12.5774 13.4895 12.7329 13.5383 12.9009C13.5871 13.0689 13.5987 13.2456 13.5725 13.4186L12.7396 18.8504C12.6959 19.1382 12.5497 19.4005 12.3279 19.5891C12.1061 19.7776 11.8236 19.8796 11.5325 19.8764H4.72471M4.72471 13.2375V19.8764M4.72471 13.2375H2.91412C2.59399 13.2375 2.28697 13.3647 2.0606 13.5911C1.83423 13.8174 1.70706 14.1244 1.70706 14.4446V18.6693C1.70706 18.9894 1.83423 19.2964 2.0606 19.5228C2.28697 19.7492 2.59399 19.8764 2.91412 19.8764H4.72471" stroke="white" stroke-opacity="0.5" stroke-width="1.5" stroke-linecap="round" stroke-linejoin="round"/>
</g>
<g clip-path="url(#clip1_620_1230)">
<path d="M20.2753 8.76248L17.8612 14.1943C17.381 14.1943 16.9204 14.0035 16.5809 13.6639C16.2413 13.3244 16.0506 12.8639 16.0506 12.3837V9.96954H12.6346C12.4596 9.97152 12.2863 9.93544 12.1267 9.86379C11.967 9.79214 11.8249 9.68665 11.7101 9.55461C11.5953 9.42256 11.5105 9.26714 11.4617 9.0991C11.4129 8.93106 11.4013 8.75442 11.4275 8.58142L12.2604 3.14965C12.3041 2.86182 12.4503 2.59947 12.6721 2.41092C12.8939 2.22238 13.1764 2.12036 13.4675 2.12365H20.2753M20.2753 8.76248V2.12365M20.2753 8.76248H21.8867C22.2283 8.76852 22.5602 8.64893 22.8194 8.42642C23.0786 8.20391 23.2471 7.89396 23.2929 7.55542V3.33071C23.2471 2.99216 23.0786 2.68222 22.8194 2.4597C22.5602 2.23719 22.2283 2.11761 21.8867 2.12365H20.2753" stroke="white" stroke-opacity="0.5" stroke-width="1.5" stroke-linecap="round" stroke-linejoin="round"/>
</g>
<defs>
<clipPath id="clip0_620_1230">
<rect width="14.4847" height="14.4847" fill="white" transform="translate(0.5 6.59869)"/>
</clipPath>
<clipPath id="clip1_620_1230">
<rect width="14.4847" height="14.4847" fill="white" transform="translate(10.0153 0.916588)"/>
</clipPath>
</defs>
</svg>
