<svg width="21" height="18" viewBox="0 0 21 18" fill="none" xmlns="http://www.w3.org/2000/svg">
<path fill-rule="evenodd" clip-rule="evenodd" d="M12.6496 0.432321C13.3384 0.146904 14.0767 0 14.8223 0C15.5679 0 16.3063 0.146905 16.9951 0.432321C17.6838 0.717685 18.3095 1.13592 18.8366 1.66314C19.3638 2.19019 19.7823 2.81622 20.0677 3.50492C20.3531 4.19375 20.5 4.93206 20.5 5.67768C20.5 6.4233 20.3531 7.16161 20.0677 7.85044C19.7823 8.5392 19.364 9.16499 18.8367 9.69207L11.1172 17.4115C10.7762 17.7526 10.2233 17.7526 9.88229 17.4115L2.16282 9.69207C1.09813 8.62739 0.5 7.18337 0.5 5.67768C0.5 4.17199 1.09813 2.72797 2.16282 1.66328C3.2275 0.5986 4.67152 0.000466987 6.17721 0.000466987C7.6829 0.000466987 9.12692 0.5986 10.1916 1.66328L10.4998 1.97145L10.8078 1.66343C11.3349 1.13614 11.9608 0.717712 12.6496 0.432321ZM14.8223 1.74649C14.3061 1.74649 13.795 1.84819 13.3181 2.04579C12.8412 2.24338 12.4079 2.533 12.043 2.89809L11.1172 3.82387C10.7762 4.1649 10.2233 4.1649 9.88229 3.82387L8.95665 2.89824C8.2195 2.16108 7.2197 1.74695 6.17721 1.74695C5.13472 1.74695 4.13492 2.16108 3.39777 2.89824C2.66062 3.63539 2.24649 4.63518 2.24649 5.67768C2.24649 6.72017 2.66062 7.71997 3.39777 8.45712L10.4998 15.5591L17.6018 8.45712C17.9669 8.0922 18.2566 7.65878 18.4542 7.18189C18.6518 6.70501 18.7535 6.19387 18.7535 5.67768C18.7535 5.16148 18.6518 4.65034 18.4542 4.17346C18.2566 3.69658 17.967 3.2633 17.6019 2.89838C17.237 2.53329 16.8034 2.24338 16.3265 2.04579C15.8497 1.84819 15.3385 1.74649 14.8223 1.74649Z" fill="white" fill-opacity="0.5"/>
</svg>
